<mxfile host="Electron" modified="2024-07-09T11:26:14.853Z" agent="Mozilla/5.0 (Windows NT 10.0; Win64; x64) AppleWebKit/537.36 (KHTML, like Gecko) draw.io/24.6.4 Chrome/124.0.6367.207 Electron/30.0.6 Safari/537.36" etag="VXUnrb55tDP_ruOnpMrC" version="24.6.4" type="device">
  <diagram name="Страница — 1" id="yoTlorvUzEgci-0IR4La">
    <mxGraphModel dx="1400" dy="839" grid="1" gridSize="10" guides="1" tooltips="1" connect="1" arrows="1" fold="1" page="1" pageScale="1" pageWidth="2339" pageHeight="3300" math="0" shadow="0">
      <root>
        <mxCell id="0" />
        <mxCell id="1" parent="0" />
        <mxCell id="Z9CqNtwIFaTDkVSmRRPI-1" value="Admin" style="shape=umlLifeline;perimeter=lifelinePerimeter;whiteSpace=wrap;html=1;container=0;dropTarget=0;collapsible=0;recursiveResize=0;outlineConnect=0;portConstraint=eastwest;newEdgeStyle={&quot;edgeStyle&quot;:&quot;elbowEdgeStyle&quot;,&quot;elbow&quot;:&quot;vertical&quot;,&quot;curved&quot;:0,&quot;rounded&quot;:0};" parent="1" vertex="1">
          <mxGeometry x="340" y="160" width="100" height="630" as="geometry" />
        </mxCell>
        <mxCell id="Z9CqNtwIFaTDkVSmRRPI-2" value="" style="html=1;points=[];perimeter=orthogonalPerimeter;outlineConnect=0;targetShapes=umlLifeline;portConstraint=eastwest;newEdgeStyle={&quot;edgeStyle&quot;:&quot;elbowEdgeStyle&quot;,&quot;elbow&quot;:&quot;vertical&quot;,&quot;curved&quot;:0,&quot;rounded&quot;:0};" parent="Z9CqNtwIFaTDkVSmRRPI-1" vertex="1">
          <mxGeometry x="45" y="80" width="10" height="510" as="geometry" />
        </mxCell>
        <mxCell id="Z9CqNtwIFaTDkVSmRRPI-3" value="Backend" style="shape=umlLifeline;perimeter=lifelinePerimeter;whiteSpace=wrap;html=1;container=0;dropTarget=0;collapsible=0;recursiveResize=0;outlineConnect=0;portConstraint=eastwest;newEdgeStyle={&quot;edgeStyle&quot;:&quot;elbowEdgeStyle&quot;,&quot;elbow&quot;:&quot;vertical&quot;,&quot;curved&quot;:0,&quot;rounded&quot;:0};" parent="1" vertex="1">
          <mxGeometry x="690" y="160" width="100" height="630" as="geometry" />
        </mxCell>
        <mxCell id="Z9CqNtwIFaTDkVSmRRPI-4" value="" style="html=1;points=[];perimeter=orthogonalPerimeter;outlineConnect=0;targetShapes=umlLifeline;portConstraint=eastwest;newEdgeStyle={&quot;edgeStyle&quot;:&quot;elbowEdgeStyle&quot;,&quot;elbow&quot;:&quot;vertical&quot;,&quot;curved&quot;:0,&quot;rounded&quot;:0};" parent="Z9CqNtwIFaTDkVSmRRPI-3" vertex="1">
          <mxGeometry x="45" y="80" width="10" height="500" as="geometry" />
        </mxCell>
        <mxCell id="Z9CqNtwIFaTDkVSmRRPI-5" value="Data Base" style="shape=umlLifeline;perimeter=lifelinePerimeter;whiteSpace=wrap;html=1;container=0;dropTarget=0;collapsible=0;recursiveResize=0;outlineConnect=0;portConstraint=eastwest;newEdgeStyle={&quot;edgeStyle&quot;:&quot;elbowEdgeStyle&quot;,&quot;elbow&quot;:&quot;vertical&quot;,&quot;curved&quot;:0,&quot;rounded&quot;:0};" parent="1" vertex="1">
          <mxGeometry x="1030" y="160" width="100" height="630" as="geometry" />
        </mxCell>
        <mxCell id="Z9CqNtwIFaTDkVSmRRPI-6" value="" style="html=1;points=[];perimeter=orthogonalPerimeter;outlineConnect=0;targetShapes=umlLifeline;portConstraint=eastwest;newEdgeStyle={&quot;edgeStyle&quot;:&quot;elbowEdgeStyle&quot;,&quot;elbow&quot;:&quot;vertical&quot;,&quot;curved&quot;:0,&quot;rounded&quot;:0};" parent="Z9CqNtwIFaTDkVSmRRPI-5" vertex="1">
          <mxGeometry x="45" y="80" width="10" height="490" as="geometry" />
        </mxCell>
        <mxCell id="Z9CqNtwIFaTDkVSmRRPI-7" value="" style="edgeStyle=elbowEdgeStyle;rounded=0;orthogonalLoop=1;jettySize=auto;html=1;elbow=vertical;curved=0;dashed=1;" parent="1" edge="1">
          <mxGeometry relative="1" as="geometry">
            <mxPoint x="1070" y="450.33" as="sourcePoint" />
            <mxPoint x="750" y="450.33" as="targetPoint" />
          </mxGeometry>
        </mxCell>
        <mxCell id="Z9CqNtwIFaTDkVSmRRPI-8" value="все полученные пользователи" style="edgeLabel;html=1;align=center;verticalAlign=middle;resizable=0;points=[];" parent="Z9CqNtwIFaTDkVSmRRPI-7" vertex="1" connectable="0">
          <mxGeometry x="0.1744" y="1" relative="1" as="geometry">
            <mxPoint x="18" y="-11" as="offset" />
          </mxGeometry>
        </mxCell>
        <mxCell id="Z9CqNtwIFaTDkVSmRRPI-9" value="" style="edgeStyle=elbowEdgeStyle;rounded=0;orthogonalLoop=1;jettySize=auto;html=1;elbow=vertical;curved=0;dashed=1;" parent="1" edge="1">
          <mxGeometry relative="1" as="geometry">
            <mxPoint x="730" y="481" as="sourcePoint" />
            <mxPoint x="400" y="480.5" as="targetPoint" />
          </mxGeometry>
        </mxCell>
        <mxCell id="Z9CqNtwIFaTDkVSmRRPI-10" value="все полученные пользователи" style="edgeLabel;html=1;align=center;verticalAlign=middle;resizable=0;points=[];" parent="Z9CqNtwIFaTDkVSmRRPI-9" vertex="1" connectable="0">
          <mxGeometry x="-0.2799" y="-3" relative="1" as="geometry">
            <mxPoint x="-45" as="offset" />
          </mxGeometry>
        </mxCell>
        <mxCell id="Z9CqNtwIFaTDkVSmRRPI-12" value="" style="edgeStyle=elbowEdgeStyle;rounded=0;orthogonalLoop=1;jettySize=auto;html=1;elbow=vertical;curved=0;" parent="1" edge="1">
          <mxGeometry relative="1" as="geometry">
            <mxPoint x="400" y="270" as="sourcePoint" />
            <mxPoint x="730" y="270" as="targetPoint" />
          </mxGeometry>
        </mxCell>
        <mxCell id="Z9CqNtwIFaTDkVSmRRPI-13" value="запрос на получение всех пользователь" style="edgeLabel;html=1;align=center;verticalAlign=middle;resizable=0;points=[];" parent="Z9CqNtwIFaTDkVSmRRPI-12" vertex="1" connectable="0">
          <mxGeometry x="0.1067" y="-1" relative="1" as="geometry">
            <mxPoint x="-25" y="-11" as="offset" />
          </mxGeometry>
        </mxCell>
        <mxCell id="Z9CqNtwIFaTDkVSmRRPI-14" value="" style="edgeStyle=elbowEdgeStyle;rounded=0;orthogonalLoop=1;jettySize=auto;html=1;elbow=vertical;curved=0;" parent="1" target="Z9CqNtwIFaTDkVSmRRPI-5" edge="1">
          <mxGeometry relative="1" as="geometry">
            <mxPoint x="750" y="280" as="sourcePoint" />
            <mxPoint x="1040" y="280" as="targetPoint" />
          </mxGeometry>
        </mxCell>
        <mxCell id="Z9CqNtwIFaTDkVSmRRPI-15" value="запрос на получение пользователей" style="edgeLabel;html=1;align=center;verticalAlign=middle;resizable=0;points=[];" parent="Z9CqNtwIFaTDkVSmRRPI-14" vertex="1" connectable="0">
          <mxGeometry x="0.1067" y="-1" relative="1" as="geometry">
            <mxPoint x="-25" y="-11" as="offset" />
          </mxGeometry>
        </mxCell>
        <mxCell id="Z9CqNtwIFaTDkVSmRRPI-16" value="" style="edgeStyle=orthogonalEdgeStyle;rounded=0;orthogonalLoop=1;jettySize=auto;html=1;elbow=vertical;" parent="1" edge="1">
          <mxGeometry relative="1" as="geometry">
            <mxPoint x="1070" y="300" as="sourcePoint" />
            <mxPoint x="1075" y="320" as="targetPoint" />
            <Array as="points">
              <mxPoint x="1070" y="301" />
              <mxPoint x="986" y="301" />
              <mxPoint x="986" y="320" />
            </Array>
          </mxGeometry>
        </mxCell>
        <mxCell id="Z9CqNtwIFaTDkVSmRRPI-17" value="поиск пользователя" style="edgeLabel;html=1;align=center;verticalAlign=middle;resizable=0;points=[];" parent="Z9CqNtwIFaTDkVSmRRPI-16" vertex="1" connectable="0">
          <mxGeometry x="-0.5878" y="-4" relative="1" as="geometry">
            <mxPoint x="-11" y="-7" as="offset" />
          </mxGeometry>
        </mxCell>
        <mxCell id="Z9CqNtwIFaTDkVSmRRPI-18" value="" style="edgeStyle=elbowEdgeStyle;rounded=0;orthogonalLoop=1;jettySize=auto;html=1;elbow=vertical;curved=0;dashed=1;" parent="1" edge="1">
          <mxGeometry relative="1" as="geometry">
            <mxPoint x="1075" y="340" as="sourcePoint" />
            <mxPoint x="750" y="340" as="targetPoint" />
          </mxGeometry>
        </mxCell>
        <mxCell id="Z9CqNtwIFaTDkVSmRRPI-19" value="получение прав доступа пользователя" style="edgeLabel;html=1;align=center;verticalAlign=middle;resizable=0;points=[];" parent="Z9CqNtwIFaTDkVSmRRPI-18" vertex="1" connectable="0">
          <mxGeometry x="0.1744" y="1" relative="1" as="geometry">
            <mxPoint x="36" y="-11" as="offset" />
          </mxGeometry>
        </mxCell>
        <mxCell id="Z9CqNtwIFaTDkVSmRRPI-20" value="" style="edgeStyle=orthogonalEdgeStyle;rounded=0;orthogonalLoop=1;jettySize=auto;html=1;elbow=vertical;" parent="1" edge="1">
          <mxGeometry relative="1" as="geometry">
            <mxPoint x="750" y="370" as="sourcePoint" />
            <mxPoint x="750" y="399" as="targetPoint" />
            <Array as="points">
              <mxPoint x="830" y="370" />
              <mxPoint x="830" y="399" />
            </Array>
          </mxGeometry>
        </mxCell>
        <mxCell id="Z9CqNtwIFaTDkVSmRRPI-21" value="проверка прав доступа" style="edgeLabel;html=1;align=center;verticalAlign=middle;resizable=0;points=[];" parent="Z9CqNtwIFaTDkVSmRRPI-20" vertex="1" connectable="0">
          <mxGeometry x="-0.251" y="-2" relative="1" as="geometry">
            <mxPoint x="-11" y="-12" as="offset" />
          </mxGeometry>
        </mxCell>
        <mxCell id="Z9CqNtwIFaTDkVSmRRPI-22" value="" style="edgeStyle=elbowEdgeStyle;rounded=0;orthogonalLoop=1;jettySize=auto;html=1;elbow=vertical;curved=0;" parent="1" edge="1">
          <mxGeometry relative="1" as="geometry">
            <mxPoint x="750" y="420.33" as="sourcePoint" />
            <mxPoint x="1070" y="420" as="targetPoint" />
          </mxGeometry>
        </mxCell>
        <mxCell id="Z9CqNtwIFaTDkVSmRRPI-23" value="получение всех&amp;nbsp; пользователей" style="edgeLabel;html=1;align=center;verticalAlign=middle;resizable=0;points=[];" parent="Z9CqNtwIFaTDkVSmRRPI-22" vertex="1" connectable="0">
          <mxGeometry x="0.1067" y="-1" relative="1" as="geometry">
            <mxPoint x="-25" y="-11" as="offset" />
          </mxGeometry>
        </mxCell>
        <mxCell id="Z9CqNtwIFaTDkVSmRRPI-44" value="" style="edgeStyle=elbowEdgeStyle;rounded=0;orthogonalLoop=1;jettySize=auto;html=1;elbow=vertical;curved=0;" parent="1" edge="1">
          <mxGeometry relative="1" as="geometry">
            <mxPoint x="400" y="510.42" as="sourcePoint" />
            <mxPoint x="729.5" y="510" as="targetPoint" />
          </mxGeometry>
        </mxCell>
        <mxCell id="Z9CqNtwIFaTDkVSmRRPI-45" value="установка нескольким пользователям прав" style="edgeLabel;html=1;align=center;verticalAlign=middle;resizable=0;points=[];" parent="Z9CqNtwIFaTDkVSmRRPI-44" vertex="1" connectable="0">
          <mxGeometry x="-0.0995" y="-1" relative="1" as="geometry">
            <mxPoint x="4" y="-11" as="offset" />
          </mxGeometry>
        </mxCell>
        <mxCell id="Z9CqNtwIFaTDkVSmRRPI-46" value="" style="edgeStyle=orthogonalEdgeStyle;rounded=0;orthogonalLoop=1;jettySize=auto;html=1;elbow=vertical;" parent="1" edge="1">
          <mxGeometry relative="1" as="geometry">
            <mxPoint x="750" y="540" as="sourcePoint" />
            <mxPoint x="750" y="569" as="targetPoint" />
            <Array as="points">
              <mxPoint x="830" y="540" />
              <mxPoint x="830" y="569" />
            </Array>
          </mxGeometry>
        </mxCell>
        <mxCell id="Z9CqNtwIFaTDkVSmRRPI-47" value="проверка прав доступа" style="edgeLabel;html=1;align=center;verticalAlign=middle;resizable=0;points=[];" parent="Z9CqNtwIFaTDkVSmRRPI-46" vertex="1" connectable="0">
          <mxGeometry x="-0.251" y="-2" relative="1" as="geometry">
            <mxPoint x="-11" y="-12" as="offset" />
          </mxGeometry>
        </mxCell>
        <mxCell id="Z9CqNtwIFaTDkVSmRRPI-48" value="" style="edgeStyle=elbowEdgeStyle;rounded=0;orthogonalLoop=1;jettySize=auto;html=1;elbow=vertical;curved=0;" parent="1" target="Z9CqNtwIFaTDkVSmRRPI-5" edge="1">
          <mxGeometry relative="1" as="geometry">
            <mxPoint x="740" y="590" as="sourcePoint" />
            <mxPoint x="1030" y="590" as="targetPoint" />
          </mxGeometry>
        </mxCell>
        <mxCell id="Z9CqNtwIFaTDkVSmRRPI-49" value="отправка id пользователей" style="edgeLabel;html=1;align=center;verticalAlign=middle;resizable=0;points=[];" parent="Z9CqNtwIFaTDkVSmRRPI-48" vertex="1" connectable="0">
          <mxGeometry x="-0.0995" y="-1" relative="1" as="geometry">
            <mxPoint x="4" y="-11" as="offset" />
          </mxGeometry>
        </mxCell>
        <mxCell id="Z9CqNtwIFaTDkVSmRRPI-50" value="" style="edgeStyle=orthogonalEdgeStyle;rounded=0;orthogonalLoop=1;jettySize=auto;html=1;elbow=vertical;" parent="1" edge="1">
          <mxGeometry relative="1" as="geometry">
            <mxPoint x="1073.95" y="610" as="sourcePoint" />
            <mxPoint x="1078.95" y="630" as="targetPoint" />
            <Array as="points">
              <mxPoint x="1073.95" y="611" />
              <mxPoint x="989.95" y="611" />
              <mxPoint x="989.95" y="630" />
            </Array>
          </mxGeometry>
        </mxCell>
        <mxCell id="Z9CqNtwIFaTDkVSmRRPI-51" value="Обновление прав доступа" style="edgeLabel;html=1;align=center;verticalAlign=middle;resizable=0;points=[];" parent="Z9CqNtwIFaTDkVSmRRPI-50" vertex="1" connectable="0">
          <mxGeometry x="-0.8025" y="-2" relative="1" as="geometry">
            <mxPoint x="-56" y="-9" as="offset" />
          </mxGeometry>
        </mxCell>
        <mxCell id="Z9CqNtwIFaTDkVSmRRPI-52" value="" style="edgeStyle=elbowEdgeStyle;rounded=0;orthogonalLoop=1;jettySize=auto;html=1;elbow=vertical;curved=0;dashed=1;" parent="1" edge="1">
          <mxGeometry relative="1" as="geometry">
            <mxPoint x="1079.5" y="660.31" as="sourcePoint" />
            <mxPoint x="750" y="660" as="targetPoint" />
          </mxGeometry>
        </mxCell>
        <mxCell id="Z9CqNtwIFaTDkVSmRRPI-53" value="данные успещно изменены" style="edgeLabel;html=1;align=center;verticalAlign=middle;resizable=0;points=[];" parent="Z9CqNtwIFaTDkVSmRRPI-52" vertex="1" connectable="0">
          <mxGeometry x="-0.1078" y="-1" relative="1" as="geometry">
            <mxPoint x="-11" y="-9" as="offset" />
          </mxGeometry>
        </mxCell>
        <mxCell id="Z9CqNtwIFaTDkVSmRRPI-54" value="" style="edgeStyle=elbowEdgeStyle;rounded=0;orthogonalLoop=1;jettySize=auto;html=1;elbow=vertical;curved=0;dashed=1;" parent="1" edge="1">
          <mxGeometry relative="1" as="geometry">
            <mxPoint x="729.5" y="670.31" as="sourcePoint" />
            <mxPoint x="400" y="670" as="targetPoint" />
          </mxGeometry>
        </mxCell>
        <mxCell id="Z9CqNtwIFaTDkVSmRRPI-55" value="данные успещно изменены" style="edgeLabel;html=1;align=center;verticalAlign=middle;resizable=0;points=[];" parent="Z9CqNtwIFaTDkVSmRRPI-54" vertex="1" connectable="0">
          <mxGeometry x="-0.1078" y="-1" relative="1" as="geometry">
            <mxPoint x="-11" y="-9" as="offset" />
          </mxGeometry>
        </mxCell>
      </root>
    </mxGraphModel>
  </diagram>
</mxfile>
